<svg width="512" height="512" viewBox="0 0 512 512" fill="none" xmlns="http://www.w3.org/2000/svg">
<g clip-path="url(#clip0_78_165)">
<path d="M109 400.5C109 411.27 100.27 420 89.5 420C78.7304 420 70 411.27 70 400.5C70 389.73 78.7304 381 89.5 381C100.27 381 109 389.73 109 400.5Z" fill="#DADEFB"/>
<path d="M133 414.5C133 425.27 124.27 434 113.5 434C102.73 434 94 425.27 94 414.5C94 403.73 102.73 395 113.5 395C124.27 395 133 403.73 133 414.5Z" fill="#DADEFB"/>
<path d="M152 423.5C152 434.27 143.27 443 132.5 443C121.73 443 113 434.27 113 423.5C113 412.73 121.73 404 132.5 404C143.27 404 152 412.73 152 423.5Z" fill="#DADEFB"/>
<path d="M176 430.5C176 441.27 167.27 450 156.5 450C145.73 450 137 441.27 137 430.5C137 419.73 145.73 411 156.5 411C167.27 411 176 419.73 176 430.5Z" fill="#DADEFB"/>
<path d="M207 439.5C207 450.27 198.27 459 187.5 459C176.73 459 168 450.27 168 439.5C168 428.73 176.73 420 187.5 420C198.27 420 207 428.73 207 439.5Z" fill="#DADEFB"/>
<path d="M239 442.5C239 453.27 230.27 462 219.5 462C208.73 462 200 453.27 200 442.5C200 431.73 208.73 423 219.5 423C230.27 423 239 431.73 239 442.5Z" fill="#DADEFB"/>
<path d="M270 434.5C270 445.27 261.27 454 250.5 454C239.73 454 231 445.27 231 434.5C231 423.73 239.73 415 250.5 415C261.27 415 270 423.73 270 434.5Z" fill="#DADEFB"/>
<path d="M302 420.5C302 431.27 293.27 440 282.5 440C271.73 440 263 431.27 263 420.5C263 409.73 271.73 401 282.5 401C293.27 401 302 409.73 302 420.5Z" fill="#DADEFB"/>
<path d="M327 414.5C327 422.508 320.508 429 312.5 429C304.492 429 298 422.508 298 414.5C298 406.492 304.492 400 312.5 400C320.508 400 327 406.492 327 414.5Z" fill="#DADEFB"/>
<path d="M342 401.5C342 409.508 335.508 416 327.5 416C319.492 416 313 409.508 313 401.5C313 393.492 319.492 387 327.5 387C335.508 387 342 393.492 342 401.5Z" fill="#DADEFB"/>
<path d="M368 404.5C368 412.508 361.508 419 353.5 419C345.492 419 339 412.508 339 404.5C339 396.492 345.492 390 353.5 390C361.508 390 368 396.492 368 404.5Z" fill="#DADEFB"/>
<path d="M391 400.5C391 408.508 384.508 415 376.5 415C368.492 415 362 408.508 362 400.5C362 392.492 368.492 386 376.5 386C384.508 386 391 392.492 391 400.5Z" fill="#DADEFB"/>
<path d="M406 396.5C406 404.508 399.508 411 391.5 411C383.492 411 377 404.508 377 396.5C377 388.492 383.492 382 391.5 382C399.508 382 406 388.492 406 396.5Z" fill="#DADEFB"/>
<path d="M397 385.5C397 393.508 390.508 400 382.5 400C374.492 400 368 393.508 368 385.5C368 377.492 374.492 371 382.5 371C390.508 371 397 377.492 397 385.5Z" fill="#DADEFB"/>
<path d="M377 372.5C377 380.508 370.508 387 362.5 387C354.492 387 348 380.508 348 372.5C348 364.492 354.492 358 362.5 358C370.508 358 377 364.492 377 372.5Z" fill="#DADEFB"/>
<path d="M376 353.5C376 361.508 369.508 368 361.5 368C353.492 368 347 361.508 347 353.5C347 345.492 353.492 339 361.5 339C369.508 339 376 345.492 376 353.5Z" fill="#DADEFB"/>
<path d="M390 334.5C390 342.508 383.508 349 375.5 349C367.492 349 361 342.508 361 334.5C361 326.492 367.492 320 375.5 320C383.508 320 390 326.492 390 334.5Z" fill="#DADEFB"/>
<path d="M404 310.5C404 318.508 397.508 325 389.5 325C381.492 325 375 318.508 375 310.5C375 302.492 381.492 296 389.5 296C397.508 296 404 302.492 404 310.5Z" fill="#DADEFB"/>
<path d="M412 289.5C412 297.508 405.508 304 397.5 304C389.492 304 383 297.508 383 289.5C383 281.492 389.492 275 397.5 275C405.508 275 412 281.492 412 289.5Z" fill="#DADEFB"/>
<path d="M420 270.5C420 278.508 413.508 285 405.5 285C397.492 285 391 278.508 391 270.5C391 262.492 397.492 256 405.5 256C413.508 256 420 262.492 420 270.5Z" fill="#DADEFB"/>
<path d="M427 249.5C427 257.508 420.508 264 412.5 264C404.492 264 398 257.508 398 249.5C398 241.492 404.492 235 412.5 235C420.508 235 427 241.492 427 249.5Z" fill="#DADEFB"/>
<path d="M434 229.5C434 237.508 427.508 244 419.5 244C411.492 244 405 237.508 405 229.5C405 221.492 411.492 215 419.5 215C427.508 215 434 221.492 434 229.5Z" fill="#DADEFB"/>
<path d="M435 209.5C435 217.508 428.508 224 420.5 224C412.492 224 406 217.508 406 209.5C406 201.492 412.492 195 420.5 195C428.508 195 435 201.492 435 209.5Z" fill="#DADEFB"/>
<path d="M456 195.5C456 203.508 449.508 210 441.5 210C433.492 210 427 203.508 427 195.5C427 187.492 433.492 181 441.5 181C449.508 181 456 187.492 456 195.5Z" fill="#DADEFB"/>
<path d="M475 181.5C475 189.508 468.508 196 460.5 196C452.492 196 446 189.508 446 181.5C446 173.492 452.492 167 460.5 167C468.508 167 475 173.492 475 181.5Z" fill="#DADEFB"/>
<path d="M494 167.5C494 175.508 487.508 182 479.5 182C471.492 182 465 175.508 465 167.5C465 159.492 471.492 153 479.5 153C487.508 153 494 159.492 494 167.5Z" fill="#DADEFB"/>
<path d="M506 147.5C506 155.508 499.508 162 491.5 162C483.492 162 477 155.508 477 147.5C477 139.492 483.492 133 491.5 133C499.508 133 506 139.492 506 147.5Z" fill="#DADEFB"/>
<path d="M509 128.5C509 136.508 502.508 143 494.5 143C486.492 143 480 136.508 480 128.5C480 120.492 486.492 114 494.5 114C502.508 114 509 120.492 509 128.5Z" fill="#DADEFB"/>
<path d="M506 118.5C506 126.508 499.508 133 491.5 133C483.492 133 477 126.508 477 118.5C477 110.492 483.492 104 491.5 104C499.508 104 506 110.492 506 118.5Z" fill="#DADEFB"/>
<path d="M495 118.5C495 126.508 488.508 133 480.5 133C472.492 133 466 126.508 466 118.5C466 110.492 472.492 104 480.5 104C488.508 104 495 110.492 495 118.5Z" fill="#DADEFB"/>
<path d="M477 132.5C477 140.508 470.508 147 462.5 147C454.492 147 448 140.508 448 132.5C448 124.492 454.492 118 462.5 118C470.508 118 477 124.492 477 132.5Z" fill="#DADEFB"/>
<path d="M456 133.5C456 141.508 449.508 148 441.5 148C433.492 148 427 141.508 427 133.5C427 125.492 433.492 119 441.5 119C449.508 119 456 125.492 456 133.5Z" fill="#DADEFB"/>
<path d="M435 138.5C435 146.508 428.508 153 420.5 153C412.492 153 406 146.508 406 138.5C406 130.492 412.492 124 420.5 124C428.508 124 435 130.492 435 138.5Z" fill="#DADEFB"/>
<path d="M411 128.5C411 136.508 404.508 143 396.5 143C388.492 143 382 136.508 382 128.5C382 120.492 388.492 114 396.5 114C404.508 114 411 120.492 411 128.5Z" fill="#DADEFB"/>
<path d="M396 118.5C396 126.508 389.508 133 381.5 133C373.492 133 367 126.508 367 118.5C367 110.492 373.492 104 381.5 104C389.508 104 396 110.492 396 118.5Z" fill="#DADEFB"/>
<path d="M383 104.5C383 112.508 376.508 119 368.5 119C360.492 119 354 112.508 354 104.5C354 96.4919 360.492 90 368.5 90C376.508 90 383 96.4919 383 104.5Z" fill="#DADEFB"/>
<path d="M371 90.5C371 98.5081 364.508 105 356.5 105C348.492 105 342 98.5081 342 90.5C342 82.4919 348.492 76 356.5 76C364.508 76 371 82.4919 371 90.5Z" fill="#DADEFB"/>
<path d="M363 84.5C363 92.5081 356.508 99 348.5 99C340.492 99 334 92.5081 334 84.5C334 76.4919 340.492 70 348.5 70C356.508 70 363 76.4919 363 84.5Z" fill="#DADEFB"/>
<path d="M357 104.5C357 112.508 350.508 119 342.5 119C334.492 119 328 112.508 328 104.5C328 96.4919 334.492 90 342.5 90C350.508 90 357 96.4919 357 104.5Z" fill="#DADEFB"/>
<path d="M356 128.5C356 136.508 349.508 143 341.5 143C333.492 143 327 136.508 327 128.5C327 120.492 333.492 114 341.5 114C349.508 114 356 120.492 356 128.5Z" fill="#DADEFB"/>
<path d="M363 153.5C363 161.508 356.508 168 348.5 168C340.492 168 334 161.508 334 153.5C334 145.492 340.492 139 348.5 139C356.508 139 363 145.492 363 153.5Z" fill="#DADEFB"/>
<path d="M375 172.5C375 180.508 368.508 187 360.5 187C352.492 187 346 180.508 346 172.5C346 164.492 352.492 158 360.5 158C368.508 158 375 164.492 375 172.5Z" fill="#DADEFB"/>
<path d="M390 186.5C390 194.508 383.508 201 375.5 201C367.492 201 361 194.508 361 186.5C361 178.492 367.492 172 375.5 172C383.508 172 390 178.492 390 186.5Z" fill="#DADEFB"/>
<path d="M383 209.5C383 217.508 376.508 224 368.5 224C360.492 224 354 217.508 354 209.5C354 201.492 360.492 195 368.5 195C376.508 195 383 201.492 383 209.5Z" fill="#DADEFB"/>
<path d="M356 205.5C356 213.508 349.508 220 341.5 220C333.492 220 327 213.508 327 205.5C327 197.492 333.492 191 341.5 191C349.508 191 356 197.492 356 205.5Z" fill="#DADEFB"/>
<path d="M339 190.5C339 198.508 332.508 205 324.5 205C316.492 205 310 198.508 310 190.5C310 182.492 316.492 176 324.5 176C332.508 176 339 182.492 339 190.5Z" fill="#DADEFB"/>
<path d="M320 176.5C320 184.508 313.508 191 305.5 191C297.492 191 291 184.508 291 176.5C291 168.492 297.492 162 305.5 162C313.508 162 320 168.492 320 176.5Z" fill="#DADEFB"/>
<path d="M312 161.5C312 169.508 305.508 176 297.5 176C289.492 176 283 169.508 283 161.5C283 153.492 289.492 147 297.5 147C305.508 147 312 153.492 312 161.5Z" fill="#DADEFB"/>
<path d="M292 146.5C292 154.508 285.508 161 277.5 161C269.492 161 263 154.508 263 146.5C263 138.492 269.492 132 277.5 132C285.508 132 292 138.492 292 146.5Z" fill="#DADEFB"/>
<path d="M275 128.5C275 136.508 268.508 143 260.5 143C252.492 143 246 136.508 246 128.5C246 120.492 252.492 114 260.5 114C268.508 114 275 120.492 275 128.5Z" fill="#DADEFB"/>
<path d="M268 113.5C268 121.508 261.508 128 253.5 128C245.492 128 239 121.508 239 113.5C239 105.492 245.492 99 253.5 99C261.508 99 268 105.492 268 113.5Z" fill="#DADEFB"/>
<path d="M277 94.5C277 102.508 270.508 109 262.5 109C254.492 109 248 102.508 248 94.5C248 86.4919 254.492 80 262.5 80C270.508 80 277 86.4919 277 94.5Z" fill="#DADEFB"/>
<path d="M260 89.5C260 97.5081 253.508 104 245.5 104C237.492 104 231 97.5081 231 89.5C231 81.4919 237.492 75 245.5 75C253.508 75 260 81.4919 260 89.5Z" fill="#DADEFB"/>
<path d="M244 94.5C244 102.508 237.508 109 229.5 109C221.492 109 215 102.508 215 94.5C215 86.4919 221.492 80 229.5 80C237.508 80 244 86.4919 244 94.5Z" fill="#DADEFB"/>
<path d="M227 99.5C227 107.508 220.508 114 212.5 114C204.492 114 198 107.508 198 99.5C198 91.4919 204.492 85 212.5 85C220.508 85 227 91.4919 227 99.5Z" fill="#DADEFB"/>
<path d="M200 104.5C200 112.508 193.508 119 185.5 119C177.492 119 171 112.508 171 104.5C171 96.4919 177.492 90 185.5 90C193.508 90 200 96.4919 200 104.5Z" fill="#DADEFB"/>
<path d="M213 99.5C213 107.508 206.508 114 198.5 114C190.492 114 184 107.508 184 99.5C184 91.4919 190.492 85 198.5 85C206.508 85 213 91.4919 213 99.5Z" fill="#DADEFB"/>
<path d="M176 103.5C176 111.508 169.508 118 161.5 118C153.492 118 147 111.508 147 103.5C147 95.4919 153.492 89 161.5 89C169.508 89 176 95.4919 176 103.5Z" fill="#DADEFB"/>
<path d="M153 103.5C153 111.508 146.508 118 138.5 118C130.492 118 124 111.508 124 103.5C124 95.4919 130.492 89 138.5 89C146.508 89 153 95.4919 153 103.5Z" fill="#DADEFB"/>
<path d="M129 108.5C129 116.508 122.508 123 114.5 123C106.492 123 100 116.508 100 108.5C100 100.492 106.492 94 114.5 94C122.508 94 129 100.492 129 108.5Z" fill="#DADEFB"/>
<path d="M109 113.5C109 121.508 102.508 128 94.5 128C86.4919 128 80 121.508 80 113.5C80 105.492 86.4919 99 94.5 99C102.508 99 109 105.492 109 113.5Z" fill="#DADEFB"/>
<path d="M90 122.5C90 130.508 83.5081 137 75.5 137C67.4919 137 61 130.508 61 122.5C61 114.492 67.4919 108 75.5 108C83.5081 108 90 114.492 90 122.5Z" fill="#DADEFB"/>
<path d="M72 137.5C72 145.508 65.5081 152 57.5 152C49.4919 152 43 145.508 43 137.5C43 129.492 49.4919 123 57.5 123C65.5081 123 72 129.492 72 137.5Z" fill="#DADEFB"/>
<path d="M58 157.5C58 165.508 51.5081 172 43.5 172C35.4919 172 29 165.508 29 157.5C29 149.492 35.4919 143 43.5 143C51.5081 143 58 149.492 58 157.5Z" fill="#DADEFB"/>
<path d="M45 176.5C45 184.508 38.5081 191 30.5 191C22.4919 191 16 184.508 16 176.5C16 168.492 22.4919 162 30.5 162C38.5081 162 45 168.492 45 176.5Z" fill="#DADEFB"/>
<path d="M38 196.5C38 204.508 31.5081 211 23.5 211C15.4919 211 9 204.508 9 196.5C9 188.492 15.4919 182 23.5 182C31.5081 182 38 188.492 38 196.5Z" fill="#DADEFB"/>
<path d="M38 219.5C38 227.508 31.5081 234 23.5 234C15.4919 234 9 227.508 9 219.5C9 211.492 15.4919 205 23.5 205C31.5081 205 38 211.492 38 219.5Z" fill="#DADEFB"/>
<path d="M38 241.5C38 249.508 31.5081 256 23.5 256C15.4919 256 9 249.508 9 241.5C9 233.492 15.4919 227 23.5 227C31.5081 227 38 233.492 38 241.5Z" fill="#DADEFB"/>
<path d="M35 264.5C35 272.508 28.5081 279 20.5 279C12.4919 279 6 272.508 6 264.5C6 256.492 12.4919 250 20.5 250C28.5081 250 35 256.492 35 264.5Z" fill="#DADEFB"/>
<path d="M35 289.5C35 297.508 28.5081 304 20.5 304C12.4919 304 6 297.508 6 289.5C6 281.492 12.4919 275 20.5 275C28.5081 275 35 281.492 35 289.5Z" fill="#DADEFB"/>
<path d="M43 318.5C43 326.508 36.5081 333 28.5 333C20.4919 333 14 326.508 14 318.5C14 310.492 20.4919 304 28.5 304C36.5081 304 43 310.492 43 318.5Z" fill="#DADEFB"/>
<path d="M38 305.5C38 313.508 31.5081 320 23.5 320C15.4919 320 9 313.508 9 305.5C9 297.492 15.4919 291 23.5 291C31.5081 291 38 297.492 38 305.5Z" fill="#DADEFB"/>
<path d="M50 332.5C50 340.508 43.5081 347 35.5 347C27.4919 347 21 340.508 21 332.5C21 324.492 27.4919 318 35.5 318C43.5081 318 50 324.492 50 332.5Z" fill="#DADEFB"/>
<path d="M61 353.5C61 361.508 54.5081 368 46.5 368C38.4919 368 32 361.508 32 353.5C32 345.492 38.4919 339 46.5 339C54.5081 339 61 345.492 61 353.5Z" fill="#DADEFB"/>
<path d="M70 367.5C70 375.508 63.5081 382 55.5 382C47.4919 382 41 375.508 41 367.5C41 359.492 47.4919 353 55.5 353C63.5081 353 70 359.492 70 367.5Z" fill="#DADEFB"/>
<path d="M84 385.5C84 393.508 77.5081 400 69.5 400C61.4919 400 55 393.508 55 385.5C55 377.492 61.4919 371 69.5 371C77.5081 371 84 377.492 84 385.5Z" fill="#DADEFB"/>
<path d="M494.354 106.479C489.232 103.92 487.025 108.798 484.032 111.278C483.007 112.079 482.143 113.119 481.273 114.076C473.793 122.24 465.048 127.597 453.622 126.957C436.923 126 422.66 131.356 410.058 144.398C407.377 128.319 398.476 118.72 384.926 112.558C377.836 109.359 370.668 106.156 365.702 99.1982C362.235 94.2373 361.293 88.7197 359.56 83.2754C358.456 79.999 357.353 76.6396 353.651 76.0781C349.633 75.4385 348.056 78.876 346.479 81.7568C340.18 93.5195 337.733 106.479 337.973 119.599C338.524 149.12 350.736 172.641 374.999 189.359C377.758 191.278 378.466 193.197 377.597 196C375.946 201.757 373.974 207.357 372.24 213.119C371.137 216.801 369.486 217.597 365.624 216C352.309 210.321 340.81 201.918 330.644 191.757C313.393 174.721 297.792 155.917 278.334 141.2C273.764 137.758 269.193 134.56 264.467 131.518C244.618 111.84 267.069 95.6777 272.27 93.7588C277.704 91.7568 274.159 84.877 256.591 84.96C239.022 85.0381 222.953 91.0391 202.47 99.0371C199.477 100.238 196.322 101.117 193.095 101.84C174.501 98.2363 155.199 97.4355 135.033 99.7598C97.0595 104.076 66.7274 122.396 44.4325 153.681C17.6454 191.278 11.3417 233.998 19.0663 278.559C27.1767 325.521 50.6581 364.398 86.7372 394.799C124.159 426.322 167.255 441.762 216.41 438.803C246.269 437.04 279.516 432.963 317.016 400.561C326.469 405.36 336.396 407.279 352.86 408.72C365.546 409.921 377.758 408.08 387.211 406.078C402.021 402.88 400.995 388.881 395.639 386.322C352.23 365.678 361.762 374.081 353.1 367.279C375.155 340.639 408.402 312.958 421.4 223.28C422.426 216.161 421.557 211.679 421.4 205.917C421.322 202.396 422.108 201.039 426.049 200.639C436.923 199.359 447.479 196.317 457.167 190.878C485.292 175.199 496.64 149.438 499.315 118.559C499.711 113.837 499.237 108.959 494.354 106.479ZM249.262 384.398C207.196 350.639 186.791 339.521 178.358 339.999C170.482 340.482 171.898 349.682 173.632 355.678C175.443 361.601 177.812 365.683 181.117 370.878C183.402 374.32 184.979 379.442 178.832 383.28C165.282 391.84 141.728 380.399 140.624 379.838C113.207 363.358 90.2821 341.601 74.1347 311.84C58.5341 283.197 49.4765 252.479 47.9774 219.677C47.5819 211.757 49.8671 208.959 57.5868 207.519C67.7528 205.6 78.2313 205.199 88.3925 206.718C131.327 213.119 167.885 232.719 198.529 263.759C216.02 281.439 229.252 302.558 242.885 323.202C257.377 345.121 272.978 366 292.831 383.119C299.843 389.12 305.434 393.681 310.79 397.04C294.643 398.881 267.699 399.281 249.262 384.398ZM269.433 252.001C269.433 248.48 272.191 245.678 275.658 245.678C276.444 245.678 277.152 245.839 277.782 246.078C278.651 246.4 279.438 246.879 280.067 247.602C281.171 248.72 281.801 250.321 281.801 252.001C281.801 255.521 279.042 258.319 275.575 258.319C272.108 258.319 269.433 255.521 269.433 252.001ZM332.064 284.799C328.046 286.479 324.027 287.919 320.165 288.08C314.179 288.397 307.641 285.922 304.096 282.88C298.583 278.158 294.643 275.521 292.987 267.279C292.279 263.759 292.675 258.319 293.305 255.199C294.721 248.48 293.144 244.159 288.495 240.238C284.716 237.04 279.911 236.161 274.633 236.161C272.66 236.161 270.849 235.277 269.511 234.56C267.304 233.441 265.492 230.639 267.226 227.201C267.777 226.078 270.458 223.358 271.088 222.88C278.256 218.72 286.527 220.077 294.169 223.197C301.259 226.161 306.615 231.601 314.34 239.281C322.216 248.559 323.632 251.117 328.124 258.08C331.669 263.52 334.901 269.12 337.104 275.521C338.446 279.521 336.713 282.802 332.064 284.799Z" fill="#DADEFB"/>
</g>
<defs>
<clipPath id="clip0_78_165">
<rect width="500" height="500" fill="white" transform="translate(6 6)"/>
</clipPath>
</defs>
</svg>
