<svg width="512" height="512" viewBox="0 0 512 512" fill="none" xmlns="http://www.w3.org/2000/svg">
<g clip-path="url(#clip0_173_2)">
<path d="M189.269 427.349C183.225 427.349 178.158 425.305 174.069 421.216C169.98 417.127 167.936 412.061 167.936 406.016V299.349H227.669L249.003 256.683H306.603L285.269 235.349H236.203L214.869 278.016H167.936V214.016H221.269L199.936 192.683H167.936V107.349C167.936 101.305 169.98 96.2383 174.069 92.1494C178.158 88.0606 183.225 86.0161 189.269 86.0161H241.003C244.914 86.0161 248.558 86.9939 251.936 88.9494C255.314 90.905 257.892 93.6606 259.669 97.2161L301.269 171.349H270.336L249.003 128.683H199.936V150.016H236.203L257.536 192.683H313.003L343.403 246.016C344.114 247.794 344.736 249.572 345.269 251.349C345.803 253.127 346.069 254.905 346.069 256.683C346.069 258.105 345.181 261.661 343.403 267.349L313.003 320.683H257.536L236.203 363.349H199.936V384.683H249.003L270.336 342.016H301.269L259.669 416.149C257.892 419.705 255.314 422.461 251.936 424.416C248.558 426.372 244.914 427.349 241.003 427.349H189.269Z" fill="white"/>
<path d="M395.264 172.032C395.264 190.129 380.593 204.8 362.496 204.8C344.399 204.8 329.728 190.129 329.728 172.032C329.728 153.935 344.399 139.264 362.496 139.264C380.593 139.264 395.264 153.935 395.264 172.032Z" fill="white"/>
<path d="M157.696 172.032C157.696 190.129 143.025 204.8 124.928 204.8C106.831 204.8 92.16 190.129 92.16 172.032C92.16 153.935 106.831 139.264 124.928 139.264C143.025 139.264 157.696 153.935 157.696 172.032Z" fill="white"/>
<path d="M92.16 212.992L124.928 221.184L157.696 212.992V393.216C157.696 404.527 148.527 413.696 137.216 413.696H112.64C101.329 413.696 92.16 404.527 92.16 393.216V212.992Z" fill="white"/>
</g>
<defs>
<clipPath id="clip0_173_2">
<rect width="512" height="512" fill="white"/>
</clipPath>
</defs>
</svg>
